<?xml version="1.0" standalone="no"?>
<!DOCTYPE svg PUBLIC "-//W3C//DTD SVG 20010904//EN"
 "http://www.w3.org/TR/2001/REC-SVG-20010904/DTD/svg10.dtd">
<svg version="1.0" xmlns="http://www.w3.org/2000/svg"
 width="472.000000pt" height="472.000000pt" viewBox="0 0 472.000000 472.000000"
 preserveAspectRatio="xMidYMid meet">
<metadata>
Created by potrace 1.14, written by Peter Selinger 2001-2017
</metadata>
<g transform="translate(0.000000,472.000000) scale(0.100000,-0.100000)"
fill="#000000" stroke="none">
<path d="M374 4628 c-3 -4 3 -11 13 -15 26 -9 32 -23 23 -48 -5 -14 -2 -34 10
-60 10 -22 16 -43 14 -47 -3 -5 -1 -8 5 -8 5 0 13 -10 17 -22 16 -54 112 -237
119 -230 5 4 5 1 1 -5 -4 -7 -2 -22 5 -35 12 -21 12 -42 4 -193 -17 -317 -17
-1104 0 -1347 3 -49 1 -68 -8 -70 -7 0 -16 -2 -22 -3 -5 -2 -16 -3 -22 -4 -17
-1 -16 -30 2 -65 8 -15 15 -34 15 -41 0 -16 35 -47 43 -38 4 3 7 -9 8 -28 1
-19 3 -59 5 -89 10 -155 3 -386 -12 -412 -2 -4 0 -9 6 -13 6 -4 7 -12 3 -18
-4 -7 -8 -124 -9 -262 -1 -137 -5 -306 -9 -375 -4 -69 -6 -181 -4 -250 2 -69
3 -217 1 -330 -1 -113 -1 -214 -1 -225 4 -61 2 -163 -4 -185 -7 -30 8 -62 21
-43 6 9 47 11 162 7 85 -3 215 -7 288 -8 73 -2 135 -6 138 -9 3 -3 16 -2 29 3
13 5 25 6 29 3 3 -3 83 -7 178 -9 173 -4 239 -8 333 -19 110 -14 159 -12 192
8 18 10 37 16 42 13 5 -4 13 -2 16 4 4 6 12 7 18 3 12 -9 64 -9 207 1 97 7
504 7 625 1 44 -2 114 -4 155 -4 41 0 82 0 90 0 8 0 74 0 145 0 229 1 290 1
295 -1 37 -12 361 -11 390 0 3 1 12 3 20 4 13 1 15 22 13 136 -1 74 -4 344 -7
600 -2 256 -8 539 -11 630 -11 254 -11 310 -2 310 4 0 5 5 1 11 -3 6 -5 57 -4
113 6 236 6 323 -1 352 -7 35 3 65 15 45 4 -6 12 -8 19 -4 15 9 48 12 137 13
87 1 99 6 105 46 3 16 7 46 11 67 3 21 2 37 -3 36 -26 -5 -30 6 -31 89 -2 146
-10 321 -16 330 -7 12 -11 176 -4 187 3 6 4 23 2 38 -1 16 -5 116 -8 223 -3
107 -8 199 -11 205 -4 5 -3 9 2 9 4 0 7 30 7 67 -1 38 -3 68 -3 68 -4 0 -12
159 -15 280 -2 86 2 143 10 168 7 20 10 37 6 37 -4 0 -2 4 3 8 11 8 17 18 65
112 19 36 37 67 41 70 3 3 23 37 44 75 21 39 42 75 46 81 5 6 7 24 6 41 l-2
31 -170 -4 c-250 -6 -364 -12 -375 -19 -5 -3 -10 -3 -10 2 0 9 -921 9 -944 0
-9 -4 -16 -3 -16 2 0 4 -16 7 -35 7 -19 -1 -35 -5 -35 -9 0 -5 -5 -5 -11 -1
-6 3 -376 8 -823 10 -446 2 -981 5 -1189 7 -208 2 -380 0 -383 -5z"/>
</g>
</svg>
