<svg id="Слой_1" data-name="Слой 1" xmlns="http://www.w3.org/2000/svg" xmlns:xlink="http://www.w3.org/1999/xlink" viewBox="0 0 299.57 114.09"><defs><style>.cls-1{stroke:#141b26;stroke-miterlimit:10;stroke-width:0.25px;fill:url(#Безымянный_градиент_50);}.cls-2{fill:#343434;}.cls-3{fill:#4e4e4e;}.cls-4{fill:#414141;}.cls-5{fill:#404040;}.cls-6{fill:#424242;}.cls-7{fill:#454545;}.cls-8{fill:#464646;}.cls-9{fill:#434343;}.cls-10{fill:#444;}.cls-11{fill:#4d4d4d;}</style><linearGradient id="Безымянный_градиент_50" x1="149.79" y1="0.13" x2="149.79" y2="113.96" gradientUnits="userSpaceOnUse"><stop offset="0" stop-color="#292d33" stop-opacity="0.95"/><stop offset="0.46" stop-color="#252a32" stop-opacity="0.96"/><stop offset="0.83" stop-color="#1a212d" stop-opacity="0.98"/><stop offset="1" stop-color="#121a2a"/></linearGradient></defs><title>achievment</title><rect class="cls-1" x="0.13" y="0.13" width="299.32" height="113.84"/><rect class="cls-2" x="21.29" y="15.92" width="82" height="82"/><path class="cls-2" d="M21.76,17h81.69c.23,0,.28.05.28.28V97.79a.64.64,0,0,1-.36,0q-40.65,0-81.29,0a1.22,1.22,0,0,1-.33,0,.74.74,0,0,1,0-.33q0-40.1,0-80.17A.61.61,0,0,1,21.76,17Z" transform="translate(-0.38 0.13)"/><path class="cls-3" d="M54.2,78.64V77.3c0-.52,0-.54-.54-.55,0,0,0,0,0,0,0-.29-.2-.29-.4-.39s-.74,0-1-.18-.7-.06-1-.17a9.41,9.41,0,0,0-2.31-.12,2.5,2.5,0,0,1-.53-.11,2.77,2.77,0,0,0-.91,0c-.5,0-1,0-1.52,0-.33,0-.62.18-.94.2a.28.28,0,0,0-.21.31,2.16,2.16,0,0,1,0,.36,1,1,0,0,1-.12.56c-.11.18,0,.46,0,.69,0,0-.08.1,0,.13-.32.31-.15.7-.18,1.06,0,.53,0,1.06,0,1.59,0,0,0,.1,0,.15a.8.8,0,0,1,.13.92,4.72,4.72,0,0,0-.16,1.44.84.84,0,0,1-.08.19c-.31,0-.37.17-.37.43,0,1.11,0,2.21,0,3.32v7.53c0,.52,0,.55-.56.55a32.64,32.64,0,0,1-4.08,0c-1.7-.21-3.4,0-5.09-.17a14.36,14.36,0,0,0-1.47-.16c-.25,0-.49,0-.65.25a.14.14,0,0,1-.21.05.8.8,0,0,1-.2-.72,1.23,1.23,0,0,0,.12-.59,3.84,3.84,0,0,1,.1-1.12,1.28,1.28,0,0,0,0-.55,10.88,10.88,0,0,1-.07-2.85A15.82,15.82,0,0,0,32,87.52a17.9,17.9,0,0,1,0-2.74,1.77,1.77,0,0,0-.09-.72,2.34,2.34,0,0,1-.09-.69V78.28a1.66,1.66,0,0,0,.05-.7c0-.94.09-1.88.15-2.81a6.65,6.65,0,0,0-.06-.89c0-.58.16-1.13.12-1.71-.09-1.5,0-3,0-4.52,0-1,.11-2,.18-3,0-.25,0-.5,0-.75a.48.48,0,0,1,.06-.24V62.48a1.71,1.71,0,0,1,.13-.8.65.65,0,0,0,0-.56,1.58,1.58,0,0,1-.13-.8c0-1.07-.18-2.13-.19-3.2a.38.38,0,0,0-.33-.38.34.34,0,0,1-.34-.36c-.14-.11-.06-.31-.18-.43a.93.93,0,0,1-.18-.42c-.22-.38-.48-.75-.31-1.22a2.6,2.6,0,0,1,.78-.13c.27,0,.39-.15.38-.41s-.13-.79-.13-1.2a30.82,30.82,0,0,0,0-4.3,49.68,49.68,0,0,1-.13-5.59c0-2.26-.12-4.53,0-6.79.12-1.89.06-3.77.18-5.65,0-.92,0-1.85.15-2.76a1.17,1.17,0,0,0-.15-.68,2.83,2.83,0,0,1-.24-.71,5.63,5.63,0,0,0-.45-.88C30.62,24,30,22.93,29.48,21.74a9.51,9.51,0,0,0-.57-1.21,1.08,1.08,0,0,1-.08-.59c0-.19,0-.37,0-.55,0-.38-.11-.48-.49-.52-.16-.28-.11-.42.15-.43,1.83-.05,3.66,0,5.49,0l1.84,0a.36.36,0,0,1,.27.06h7.2a.46.46,0,0,0,.26,0c7.44.15,14.88,0,22.32.07.33,0,.66,0,1,0a.69.69,0,0,1,.32.08H89.51A41.42,41.42,0,0,1,94,18.47c1.05-.11,2.09,0,3.13-.09.2,0,.3.06.41.28.35.72-.1,1.19-.44,1.69a5.84,5.84,0,0,0-.35.65A11.73,11.73,0,0,1,96,22.29a32.09,32.09,0,0,0-1.64,2.92,5.11,5.11,0,0,1-.47,1,6.27,6.27,0,0,0-.1,1.56c0,.87,0,1.74,0,2.61,0,.63,0,1.27,0,1.89a19.94,19.94,0,0,1,.23,2.44,8.06,8.06,0,0,1,0,1.7,1.93,1.93,0,0,0,0,.24c0,.87,0,1.73,0,2.59a3.76,3.76,0,0,0,.15.94v2.65a1.32,1.32,0,0,0,.11.68.28.28,0,0,1,0,.18A8.86,8.86,0,0,0,94.15,46c0,.21,0,.43,0,.64a1.84,1.84,0,0,0,.15,1,.37.37,0,0,1,0,.21c-.11,1.71.28,3.4.19,5.1,0,.41,0,.82,0,1.22s.1.5.41.55c.14,0,.24.1.24.24a2.71,2.71,0,0,1-.06,1,7.23,7.23,0,0,0-.21.8c-.1.36-.24.49-.62.5-.6,0-1.2,0-1.8,0a15.32,15.32,0,0,1-2,.2c-.15,0-.24.1-.24.26s0,.24,0,.36c0,2.75,0,5.49,0,8.24,0,.57-.31,1.12-.18,1.7.26,1.12.08,2.26.28,3.38a1.83,1.83,0,0,1,0,.33c.1,4.45,0,8.91.08,13.36,0,2,0,4.06.19,6.08.09,1.11.06,2.21.09,3.31,0,.52-.14.61-.64.67a18.79,18.79,0,0,1-4.1.15,38,38,0,0,0-4.13-.16c-3.16,0-6.33.09-9.48,0-1.78-.07-3.56-.13-5.34-.14s-3.82-.13-5.7,0c-1.68.15-3.34.07-5,.15a1.37,1.37,0,0,0-.86.41c-.46.41-.84.32-1-.27a.65.65,0,0,0-.1-.15c-.16,0-.15-.19-.15-.32,0-.37,0-.74,0-1.11V84.47c0-.41,0-.82,0-1.24,0-.18-.05-.34.14-.47s0-.68-.11-.8a.3.3,0,0,1,0-.42.48.48,0,0,0,.15-.45,2.82,2.82,0,0,0,0-.58c-.08-.29-.12-.59-.21-.85s-.17-.31,0-.51S54.06,78.79,54.2,78.64Z" transform="translate(-0.38 0.13)"/><path class="cls-3" d="M51.64,94.07a1.3,1.3,0,0,1-.1,1.24.28.28,0,0,1-.22.1,5.11,5.11,0,0,1-.88,0,10.7,10.7,0,0,0-1.69-.14c-.52,0-1,0-1.56,0s-.61,0-.61-.61c0-.05,0-.15-.06-.16-.33-.09-.16-.39-.25-.58.09,0,0-.09,0-.13-.31-.26-.15-.62-.17-.93s0-.88,0-1.31a.39.39,0,0,1,.1-.3c.15-.15.06-.38.07-.57,0-.35,0-.7,0-1.06,0,0,.08-.09,0-.13.34-.38.12-.84.18-1.27a.77.77,0,0,1,.12-.4c.13-.19,0-.43.06-.64,0-.73-.07-1.47,0-2.19.26-1.69,0-3.39.14-5.08,0-.4.15-.79.15-1.2a.39.39,0,0,1,.39-.31c1.18,0,2.37,0,3.55,0a.45.45,0,0,1,.26.08s0,.07.05.07c.72,0,.59.57.6,1,0,1.64,0,3.28,0,4.91a1.9,1.9,0,0,1-.08.71V89a2.17,2.17,0,0,0,0,.76c0,.61,0,1.22,0,1.83a9.12,9.12,0,0,0-.15,1.28A4.4,4.4,0,0,0,51.64,94.07Z" transform="translate(-0.38 0.13)"/><path class="cls-3" d="M53.35,95.11a2.09,2.09,0,0,1,0,.25.24.24,0,0,1-.27.23.22.22,0,0,1-.25-.22.86.86,0,0,0-.24-.53c-.16-.2-.08-.47,0-.71a5.83,5.83,0,0,0,0-2,7,7,0,0,1,0-1.58s0-.07,0-.09c.37-.29.25-.7.25-1.07,0-1.46,0-2.91,0-4.36-.18-.26-.09-.55-.09-.82q0-2.33,0-4.65a5,5,0,0,0,0-.67,1.39,1.39,0,0,0-.5-1.08,1.1,1.1,0,0,0-.62-.22H49.46a.65.65,0,0,1-.41-.09.17.17,0,0,0-.21,0c-.28.21-.59.12-.89.13H46.78a.56.56,0,0,0-.52.37c-.14.28-.07.59-.17.85A4.44,4.44,0,0,0,46,80.42c0,.27-.23.47-.15.75,0,.11,0,.24.08.33s.06.18.06.26c0,.46,0,.93,0,1.39,0,.27-.17.46-.17.72,0,.92,0,1.84,0,2.75,0,.14,0,.27-.12.39s-.06.32,0,.46a11.22,11.22,0,0,0,0,1.16.14.14,0,0,1,0,.11c-.3.41-.11.87-.14,1.3a3.32,3.32,0,0,0,0,.63s0,.07,0,.1c-.29.44-.13.93-.15,1.39,0,.67,0,1.34,0,2,0,.1,0,.21-.08.28a1.54,1.54,0,0,1-.07.59c-.17-.14-.11-.31-.11-.45,0-2.83,0-5.67,0-8.5,0-.87,0-1.74,0-2.62.15-.21.06-.45.07-.68,0-1.21,0-2.41,0-3.62,0-.68,0-1.37,0-2,0-.12,0-.22.1-.29s.06-.11.07-.17c0-.31.08-.36.37-.35,1.49.06,3,0,4.47,0,.29,0,.52.14.8.16s.64,0,1,0c.15,0,.27,0,.4.12s.29,0,.44,0a.49.49,0,0,1,.56.38s.06.06.09.09v1.52a.67.67,0,0,1,.13,1,.71.71,0,0,0,0,.41c0,.3,0,.61,0,.92a.5.5,0,0,0,.11.38c.12.12,0,.34,0,.51,0,.5,0,1,0,1.49a.1.1,0,0,1,0,.08c-.28.42-.11.89-.15,1.33s0,.65,0,1a.34.34,0,0,0,0,.16.8.8,0,0,1,0,1,.92.92,0,0,0,0,.44c0,2.06,0,4.13,0,6.19,0,.48,0,1,0,1.43A.36.36,0,0,1,53.35,95.11Z" transform="translate(-0.38 0.13)"/><path class="cls-4" d="M45.18,94.44c0-.8,0-1.6,0-2.41a4.35,4.35,0,0,1,.14-1.38,4.63,4.63,0,0,0,0-1.24,1.61,1.61,0,0,1,.13-.74,2,2,0,0,0,0-.81,2.43,2.43,0,0,1,.15-1.13.85.85,0,0,0,0-.36c0-.65,0-1.3,0-2a7.23,7.23,0,0,1,.12-1.14,3.16,3.16,0,0,0-.07-1.8.84.84,0,0,1,0-.71,1.34,1.34,0,0,0,.12-.65A9.35,9.35,0,0,1,46,78.21c.06-.52.31-.72.84-.73h1.21a1.1,1.1,0,0,0,.62-.12.33.33,0,0,1,.33,0,1.82,1.82,0,0,0,1,.14h1.49c.67,0,.9.21,1.14.83a2.37,2.37,0,0,1,.15,1V85c-.22-.1-.18-.3-.18-.48,0-1.8,0-3.6,0-5.4a1.33,1.33,0,0,0-1.27-1.51l-2.4,0c-.68,0-1.36,0-2,0-.37,0-.57.34-.67.8A16.25,16.25,0,0,0,46,80.5c-.07.82.14,1.63,0,2.44-.17,1.25,0,2.52-.16,3.76a13.72,13.72,0,0,1-.18,2c-.17.66,0,1.33-.17,2a19.32,19.32,0,0,0-.16,3.48C45.35,94.23,45.33,94.37,45.18,94.44Z" transform="translate(-0.38 0.13)"/><path class="cls-4" d="M51.76,85.17V79.56c0-1-.23-1-1.07-1.08-1-.1-2,0-3,0-.42,0-.52.17-.59.58-.32,1.79-.05,3.6-.2,5.39a29.13,29.13,0,0,1-.14,3.12,10.31,10.31,0,0,1-.28,2.06,2.93,2.93,0,0,0,0,1,1.54,1.54,0,0,1-.14.79.49.49,0,0,0,0,.24c0,.12,0,.25,0,.37a6.3,6.3,0,0,0,.37,2.58c-.47-.32-.47-.85-.53-1.31a4.79,4.79,0,0,1,0-1.73c.16-.71,0-1.43.19-2.11.11-.46,0-.94.16-1.37A30.56,30.56,0,0,0,46.6,85a39.47,39.47,0,0,0,.16-5c0-.43.15-.85.15-1.29a.42.42,0,0,1,.46-.4c1.2,0,2.4,0,3.6,0,.68,0,1,.39,1,1.06,0,1.71,0,3.42,0,5.13A1,1,0,0,1,51.76,85.17Z" transform="translate(-0.38 0.13)"/><path class="cls-5" d="M67.19,18.68c-7.31,0-14.63,0-21.94,0a11.69,11.69,0,0,1-2-.16H66.64C66.85,18.5,67.06,18.48,67.19,18.68Z" transform="translate(-0.38 0.13)"/><path class="cls-5" d="M54.2,78.64a5.38,5.38,0,0,1-.07.69,2.35,2.35,0,0,0,.15.85,2.2,2.2,0,0,1,0,1.39.4.4,0,0,0,0,.32,1.23,1.23,0,0,1,0,1.09,1,1,0,0,0-.06.41V94.63a1.58,1.58,0,0,0,.06.48.28.28,0,0,1-.24-.3V83.39a4,4,0,0,1,.09-.69A.73.73,0,0,0,54,82a.27.27,0,0,1,0-.44,1,1,0,0,0,.13-1.14,6.12,6.12,0,0,1-.24-.91A.94.94,0,0,1,54.2,78.64Z" transform="translate(-0.38 0.13)"/><path class="cls-5" d="M53.35,95.11V87.19a1.11,1.11,0,0,1,.12-.56.49.49,0,0,0,0-.47,2.06,2.06,0,0,1-.14-1v-.82a6.8,6.8,0,0,1,.13-1,4.76,4.76,0,0,0-.07-2,3.3,3.3,0,0,1,0-1.68,1.12,1.12,0,0,0-.06-1c.26,0,.37.12.36.37a2.82,2.82,0,0,1-.12.77,2.51,2.51,0,0,0,0,1.36,2.11,2.11,0,0,1,.11.71c0,.29,0,.59,0,.88a8.94,8.94,0,0,1-.12,1,4.78,4.78,0,0,0,.07,2.16,1.19,1.19,0,0,1,0,.87,1.6,1.6,0,0,0-.12.65V94.6C53.53,94.79,53.58,95,53.35,95.11Z" transform="translate(-0.38 0.13)"/><path class="cls-4" d="M44.32,83.28v-.89a1.76,1.76,0,0,1,.13-.74.77.77,0,0,0,0-.68,1.45,1.45,0,0,1-.12-.65,9.29,9.29,0,0,0,0-1.18,9.06,9.06,0,0,1,.24-2c0-.33.14-.66.15-1a.28.28,0,0,1,.18-.29,5.09,5.09,0,0,1,.93-.24,13.3,13.3,0,0,1,2.19,0,25.25,25.25,0,0,0,2.87.17c.7.06,1.38.25,2.08.31a1.71,1.71,0,0,1,.57.21c.18.09.12.28.14.44a1.59,1.59,0,0,0-1.13-.49A11.16,11.16,0,0,1,50.82,76a1.49,1.49,0,0,0-.36,0H49a2.62,2.62,0,0,1-.88-.1.49.49,0,0,0-.27,0,6.51,6.51,0,0,1-1.65,0,4.59,4.59,0,0,0-1,.15.46.46,0,0,0-.37.52,4.62,4.62,0,0,1-.16,1.45A9.67,9.67,0,0,0,44.51,80a1.86,1.86,0,0,0,.12.8,1.25,1.25,0,0,1,0,.93,3.2,3.2,0,0,0-.14,1.1C44.5,83,44.51,83.2,44.32,83.28Z" transform="translate(-0.38 0.13)"/><path class="cls-5" d="M53.35,77.12a3.52,3.52,0,0,0-2.21-.55,1.26,1.26,0,0,1-.68-.13.69.69,0,0,0-.38,0H45.84a.47.47,0,0,0-.52.38,3.2,3.2,0,0,0-.14,1.1c0,1.71,0,3.42,0,5.12,0,.18,0,.38-.17.48,0-2.08,0-4.16,0-6.24a1,1,0,0,1,.5-1,.28.28,0,0,1,.15,0,42.57,42.57,0,0,0,4.52.11c.62,0,1.24.11,1.87.14.31,0,.62.15,1,.19S53.35,76.86,53.35,77.12Z" transform="translate(-0.38 0.13)"/><path class="cls-5" d="M32.31,63.64c0,1.15-.16,2.3-.17,3.45,0,.53,0,1.06,0,1.59,0,1.16-.06,2.33,0,3.49a2.39,2.39,0,0,1-.1.88,2.33,2.33,0,0,0,0,1.23,1.12,1.12,0,0,1,0,.6A4.21,4.21,0,0,0,32,76l-.06,1.94a.47.47,0,0,1-.12.34,10.14,10.14,0,0,1,0-1.46c.22-1.45,0-2.9.15-4.35.05-.55,0-1.11,0-1.67a28.22,28.22,0,0,1,0-3.68c.13-1.06.09-2.12.21-3.18A.49.49,0,0,1,32.31,63.64Z" transform="translate(-0.38 0.13)"/><path class="cls-6" d="M94.15,40.22a1,1,0,0,1-.18-.67c0-1.54,0-3.08,0-4.62a13.28,13.28,0,0,0-.18-2.27,2.48,2.48,0,0,1,0-.27c0-1.74-.19-3.48-.13-5.23a2,2,0,0,1,.19-.91c0,1.87,0,3.74,0,5.61,0,.76.16,1.52.24,2.28a8.29,8.29,0,0,1,0,2.28,2.61,2.61,0,0,0,0,.48c0,.73,0,1.45,0,2.17A8.79,8.79,0,0,1,94.15,40.22Z" transform="translate(-0.38 0.13)"/><path class="cls-4" d="M36.09,18.5H28.84c-.26,0-.51,0-.5.37a.23.23,0,0,1-.15-.3c0-.14.15-.17.28-.18.35,0,.69-.07,1-.07,2.06,0,4.12,0,6.18.06A.52.52,0,0,1,36.09,18.5Z" transform="translate(-0.38 0.13)"/><path class="cls-5" d="M51.64,94.07a.83.83,0,0,1-.18-.59,4.43,4.43,0,0,1,0-1.21,14.54,14.54,0,0,0,.16-3,.47.47,0,0,1,.12-.3c.18.31,0,.63,0,.94C51.84,91.29,51.56,92.68,51.64,94.07Z" transform="translate(-0.38 0.13)"/><path class="cls-4" d="M30.78,54.31c-.08.45.19.81.31,1.22A1.11,1.11,0,0,1,30.78,54.31Z" transform="translate(-0.38 0.13)"/><path class="cls-4" d="M31.27,56a.5.5,0,0,1,.18.43C31.25,56.29,31.27,56.12,31.27,56Z" transform="translate(-0.38 0.13)"/><path class="cls-2" d="M73.66,28.81H76.1c.22.17.46.06.7.07,1.3.06,2.6,0,3.9,0l1.08,0a.55.55,0,0,0,.37-.1c.15-.13.36,0,.41.25a4.8,4.8,0,0,1,0,1.07c0,2.88,0,5.77,0,8.65,0,.16,0,.32,0,.48s0,.21.11.28.1.25.09.36c-.05,1.23,0,2.45,0,3.68,0,.1,0,.16-.17.22a7.46,7.46,0,0,1-2.35.2c-1.24.1-2.49,0-3.73.05a.27.27,0,0,0-.12,0,.85.85,0,0,1-.22.09,13.69,13.69,0,0,1-2.48,0,4.43,4.43,0,0,0-.51-.06h-3c-.13.11-.3,0-.45.06s-.54,0-.82,0-.72-.2-1.11-.2c-.09,0-.1,0-.1-.23,0-1.08,0-2.16,0-3.24a1.28,1.28,0,0,1,.13-.73c.1-.15,0-.45,0-.68a21.35,21.35,0,0,0,0-3.3,18.81,18.81,0,0,1-.09-2.24c0-.77,0-1.53,0-2.29,0-.23.18-.37.16-.6,0-.49,0-1,0-1.47,0-.14,0-.24.23-.24,1.36,0,2.73,0,4.1,0,.42,0,.84,0,1.26,0A.3.3,0,0,0,73.66,28.81Z" transform="translate(-0.38 0.13)"/><path class="cls-2" d="M66.22,80.35h-1.5A9.77,9.77,0,0,0,63,80.6a4.26,4.26,0,0,1-1.84.06,4.11,4.11,0,0,0-1.77-.09,21.38,21.38,0,0,1-3.29.15c-.29.15-.35.11-.4-.18a.28.28,0,0,0,0-.17c-.27-.38-.1-.83-.15-1.24a2.35,2.35,0,0,1,0-.26V67.59c0-.38,0-.76,0-1.14,0-.13,0-.17.18-.23.75-.36,1.55-.08,2.31-.18.12,0,.25,0,.35-.09s.15,0,.24,0c.56,0,1.13,0,1.69,0,.94-.1,1.87-.08,2.81-.09a2.55,2.55,0,0,0,1,.09c1.11,0,2.22,0,3.33,0a.61.61,0,0,0,.41-.11.5.5,0,0,1,.57.11.41.41,0,0,1,0,.52,1.41,1.41,0,0,0,0,1,1.86,1.86,0,0,1,.1.39c0,1.35,0,2.7,0,4,0,.27.16.45.16.71,0,.7,0,1.39,0,2.09,0,.32.26.6.19.94.31.36.14.8.16,1.2,0,.65,0,1.3,0,1.94,0,0,0,.08,0,.11.29.23.1.54.14.82s-.13.42-.4.43a.58.58,0,0,0-.5.14c-.08.08-.28,0-.43,0-.47,0-.95,0-1.43,0A.31.31,0,0,0,66.22,80.35Z" transform="translate(-0.38 0.13)"/><path class="cls-4" d="M89.75,54.9a12.4,12.4,0,0,0-1.88-.24c-.67.05-.67,0-.67-.67v-2.1c0-.39.06-.45.45-.45.89,0,1.79,0,2.68,0s1.74-.05,2.61,0a.29.29,0,0,0,.26-.07c-.08-.14-.21-.1-.33-.1H91.26c-.24,0-.33-.11-.43-.33a2.86,2.86,0,0,1-.15-1.32,6.88,6.88,0,0,1,.14-2.26.18.18,0,0,0,0-.17,2.2,2.2,0,0,1-.41-1.35c0-.44,0-.88,0-1.32a.45.45,0,0,0-.08-.36c-.14.1-.1.24-.1.35v2.17c0,.37-.07.43-.43.44H87.32c-.36,0-.42-.07-.42-.44,0-.6,0-1.2,0-1.8a2.6,2.6,0,0,0-.13-.95c-.2-.49,0-.71.51-.72H89.5a1.16,1.16,0,0,1,.33,0,.39.39,0,0,0,.52-.1.24.24,0,0,1,.24-.09c.43.17.87-.09,1.33.11a3.14,3.14,0,0,0,1.23.05c.53,0,.63.11.63.63,0,.82,0,1.64,0,2.47a.89.89,0,0,0,.12.52c.18.27.08.45-.24.46-.49,0-1,0-1.46,0-.13,0-.27,0-.39.09.07.12.19.09.29.09h1.31c.39,0,.55.15.54.53a32.79,32.79,0,0,1,0,3.29.92.92,0,0,0,.09.47,2,2,0,0,1,.15,1v1.59c0,.47,0,.51-.5.51H92.49a.38.38,0,0,0-.32.08c.1.12.22.09.34.09h1.92c.4,0,.44.06.46.46a3.32,3.32,0,0,1-.28,1,.48.48,0,0,1-.53.32,17.42,17.42,0,0,1-2.8,0A40.16,40.16,0,0,0,87,56.68c-3.53-.26-7.05-.17-10.57-.08-2.74.08-5.49.12-8.22,0-1.75,0-3.49-.07-5.24-.07a16.93,16.93,0,0,1-2.36.09c-1.38-.2-2.76,0-4.13-.12-.91-.06-1.81.05-2.72,0s-1.81,0-2.71,0a1.46,1.46,0,0,1-.77-.13.73.73,0,0,0-.39,0H48.22a7.25,7.25,0,0,1-1.13-.13,3.16,3.16,0,0,0-1.8.07.52.52,0,0,1-.47,0,2.22,2.22,0,0,0-1.08-.14c-.29,0-.59,0-.88,0a1.71,1.71,0,0,0-.92.14.85.85,0,0,1-.36,0H32.31a.67.67,0,0,1-.72-.44c-.12-.27-.29-.53-.42-.81s-.06-.44.27-.45.61,0,.92,0h9.08a1.33,1.33,0,0,1,.71.13.74.74,0,0,0,.39.05,9.37,9.37,0,0,0,1.59,0c2-.34,4.06,0,6.06-.2,2.52-.28,5,0,7.54-.15,3.09.4,6.2,0,9.3.21a8.27,8.27,0,0,0,2,.13c1.09-.23,2.2,0,3.26-.19a36.41,36.41,0,0,1,4.55-.15c2,.39,4.12,0,6.15.22,1.74.21,3.46,0,5.19.15.4,0,.77.26,1.19.18C89.51,55,89.64,55.06,89.75,54.9Z" transform="translate(-0.38 0.13)"/><path class="cls-5" d="M94.17,21.92c-.28,0-.55,0-.83,0a2.19,2.19,0,0,0-1,.14,1.34,1.34,0,0,1-.57,0H90.51a1.94,1.94,0,0,0-1,.15.85.85,0,0,1-.36,0H79.9a1.33,1.33,0,0,1-.56-.11.9.9,0,0,0-.8,0,.4.4,0,0,1-.38,0,2.3,2.3,0,0,0-1.1-.14c-.38,0-.75,0-1.13,0a1.86,1.86,0,0,0-1,.15.85.85,0,0,1-.36,0c-1.74,0-3.48,0-5.21,0-.48,0-1,0-1.43,0-5.21-.39-10.43-.12-15.64-.17s-10.47,0-15.7,0A2.23,2.23,0,0,1,35.44,22a1,1,0,0,0-.42,0H30.3c-.36,0-.48-.13-.42-.43a.24.24,0,0,1,.22-.22,1.35,1.35,0,0,1,.72,0,1.57,1.57,0,0,0,.74.13h27.5a1.59,1.59,0,0,1,.8.13.84.84,0,0,0,.39.05H90.56c.76-.22,1.56-.06,2.31-.22a16.56,16.56,0,0,1,2.63-.14c.23,0,.42,0,.42.34s-.19.33-.41.33c-.45,0-.9,0-1.34,0Z" transform="translate(-0.38 0.13)"/><path class="cls-2" d="M32.31,87.27c0-.45,0-.91,0-1.37s.17-.54.54-.54h2.37c.28,0,.38.13.38.4s0,.83,0,1.24a3,3,0,0,0,.14,1.07c.21.52,0,.78-.58.91a14.4,14.4,0,0,1-2.45.1c-.29,0-.41-.12-.4-.4C32.32,88.21,32.31,87.74,32.31,87.27Z" transform="translate(-0.38 0.13)"/><path class="cls-5" d="M34,68.8c.1.12.23.08.34.08h1.13c.33,0,.5.17.5.49,0,1,0,2,0,3a.44.44,0,0,1-.49.5H33c-.2,0-.33-.06-.35-.29a19.41,19.41,0,0,1-.2-3c0-.32,0-.59.38-.72.12,0,.11-.12,0-.17s-.2-.25-.2-.42c0-1,0-1.93,0-2.89,0-.3.12-.43.42-.42s.89,0,1.34,0c.09,0,.24,0,.23-.13s-.14-.1-.23-.1H33.09c-.3,0-.42-.13-.42-.42,0-1.1,0-2.2,0-3.3,0-.35.12-.48.48-.49h2.5c.43,0,.6.3.43.72a2.78,2.78,0,0,0,0,1.54,2.68,2.68,0,0,1,0,1.51c-.11.26-.23.48,0,.71a.14.14,0,0,1,.06.13A5.07,5.07,0,0,1,36,66.37a1.13,1.13,0,0,0-.06.41c0,.47,0,.94,0,1.41s-.16.49-.51.51H34.32C34.21,68.71,34.08,68.66,34,68.8Z" transform="translate(-0.38 0.13)"/><path class="cls-4" d="M34.33,30.25c-.09-.13-.22-.09-.33-.1-.44,0-.88,0-1.31,0s-.65-.27-.53-.63a8.91,8.91,0,0,0,.15-2.3c0-.43,0-.46.47-.49a17.53,17.53,0,0,1,2.41-.19c.57.05.59,0,.59.61s0,1.37,0,2.05c0,1.39,0,2.78,0,4.18,0,.5-.19.66-.72.73-.31,0-.63,0-.94,0-.11,0-.23,0-.32.08.07.12.19.09.29.1h1.13c.39,0,.55.15.55.53,0,.94,0,1.87,0,2.81,0,.3-.22.52-.62.54-.79,0-1.58,0-2.37,0-.13,0-.27,0-.28-.19a8,8,0,0,1-.23-1.22A5.43,5.43,0,0,0,32.2,35a.35.35,0,0,1,.28-.49c.13,0,.21-.13.14-.25a2.41,2.41,0,0,1-.13-1.16,4,4,0,0,0-.13-1,4.42,4.42,0,0,1,0-1.54c0-.2.2-.21.35-.21H34C34.11,30.33,34.24,30.37,34.33,30.25Z" transform="translate(-0.38 0.13)"/><path class="cls-4" d="M34.29,46.51c.09.14.21.1.31.11s.45,0,.67,0,.33.11.33.32c0,1.06,0,2.12,0,3.17,0,0,0,.12,0,.15-.28.26-.16.57-.16.88,0,.9,0,1.8,0,2.71,0,.39-.06.45-.44.45H32.91c-.3,0-.35-.15-.44-.41-.28-.82,0-1.68-.26-2.49-.12-.48.08-.7.56-.7h1.34a.45.45,0,0,0,.36-.08c-.08-.13-.22-.09-.32-.09H32.68c-.38,0-.49-.11-.49-.49s0-.87,0-1.31A2.3,2.3,0,0,0,32,47.65,1.05,1.05,0,0,1,32,47c0-.17.14-.23.3-.23h.61a.45.45,0,0,0,.34-.09c-.24-.16-.49-.07-.72-.09s-.34-.08-.36-.31A18.74,18.74,0,0,1,32,43.23c0-.55,0-.6.56-.57.8.06,1.58-.13,2.37-.13.63,0,.86.35.6.94a1.38,1.38,0,0,0,0,1,4.22,4.22,0,0,1,0,1.66c0,.25-.27.29-.5.31A1.69,1.69,0,0,0,34.29,46.51Z" transform="translate(-0.38 0.13)"/><path class="cls-5" d="M42.86,59.12c.51,0,1,0,1.52,0A2.25,2.25,0,0,0,45.52,59a1,1,0,0,1,.39,0,15.06,15.06,0,0,0,2.77,0,22.92,22.92,0,0,1,3.2-.14c.69,0,.92.23.92.91v1.92a1.36,1.36,0,0,0,.13.71.42.42,0,0,1,0,.43.64.64,0,0,0,0,.64.85.85,0,0,1-.79,1.26,36.07,36.07,0,0,0-3.61.14c-1.87.26-3.72.06-5.58.14-.45,0-.89-.06-1.33,0s-.76-.2-1.16-.23c-.22,0-.26-.25-.2-.44a2.22,2.22,0,0,0,0-1.2,1.8,1.8,0,0,1,0-.73,12.65,12.65,0,0,0,.1-2.61c0-.56,0-.59.59-.59Z" transform="translate(-0.38 0.13)"/><path class="cls-5" d="M89.82,59.39V61a1,1,0,0,1-.11.56.32.32,0,0,0,0,.34.87.87,0,0,1,0,.74,1.72,1.72,0,0,0-.13.77v1.68c0,.42-.16.57-.58.58-.59,0-1.17,0-1.76,0a3.33,3.33,0,0,1-.82-.23c-.13,0-.13-.19-.13-.32,0-.31,0-.63,0-.94a3,3,0,0,0-.13-1.11,2,2,0,0,1,0-1,.45.45,0,0,1,.3-.33c.19-.08.15-.14,0-.22a.51.51,0,0,1-.32-.51c0-1.06,0-2.11,0-3.17,0-.27.12-.39.39-.38h2.07a1.33,1.33,0,0,0,.59-.12c.39-.18.61,0,.61.39Z" transform="translate(-0.38 0.13)"/><path class="cls-4" d="M33.48,81.3a1,1,0,0,0-.59-.09c-.42,0-.57-.17-.58-.58,0-.88-.16-1.75-.16-2.63,0-.55.1-.7.66-.7h1a2,2,0,0,0,.83-.13,1.71,1.71,0,0,1,.9,0c.16,0,.2.16.2.3v3.14a.4.4,0,0,1-.42.43c-.21,0-.42,0-.64,0s-.24,0-.35.09c.06.12.18.09.28.09h.79c.21,0,.34.09.34.3,0,1.07,0,2.14,0,3.2a.42.42,0,0,1-.45.45c-.84,0-1.68,0-2.52,0-.11,0-.24,0-.26-.13a3.14,3.14,0,0,1-.23-.81c0-.8,0-1.6,0-2.4,0-.37.06-.42.43-.43A1.65,1.65,0,0,0,33.48,81.3Z" transform="translate(-0.38 0.13)"/><path class="cls-5" d="M56.16,44.18a1.57,1.57,0,0,1-.61.06H45c-.79,0-1.57.19-2.37.13-.5,0-.54,0-.54-.54,0-.79,0-1.58,0-2.37a.87.87,0,0,1,.1-.53.34.34,0,0,0,0-.35.69.69,0,0,1,0-.67.72.72,0,0,0,.08-.32,20.84,20.84,0,0,0,0-3.26A39.77,39.77,0,0,1,42.07,32a1.14,1.14,0,0,1,.12-.68.75.75,0,0,0,.06-.39c0-.52,0-1,0-1.55s.27-.63.68-.44a1.14,1.14,0,0,0,.51.08h4.18l.05,0c.11.17.06.27-.13.3a1.94,1.94,0,0,1-.34,0H43.27c-.59,0-.68.09-.69.7v1.06a1.35,1.35,0,0,1-.09.6,1.66,1.66,0,0,0-.09.63V35a1.75,1.75,0,0,0,.13.75,1,1,0,0,1,0,.42c0,1.36,0,2.72,0,4.08,0,1-.26,1.9-.18,2.87s.08.91.91.91H55.19A3.21,3.21,0,0,0,56,44c.08,0,.16,0,.21.06A.16.16,0,0,1,56.16,44.18Z" transform="translate(-0.38 0.13)"/><path class="cls-4" d="M89.73,38.3s0,0,0,.05c-.17.52-.17.52-.74.52s-1.21,0-1.82,0-.59-.12-.59-.57V35.43c0-.4.06-.46.46-.46h2a1.41,1.41,0,0,1,.63.23c.19.09.28-.25.55-.24,1,0,2,0,3.05,0,.28,0,.41.11.4.39,0,1,0,2,0,3,0,.28-.12.42-.41.4-.64,0-1.26.18-1.9.13a2.88,2.88,0,0,0-1.17,0c-.2.06-.35-.06-.37-.3A.28.28,0,0,0,89.73,38.3Z" transform="translate(-0.38 0.13)"/><path class="cls-5" d="M76.4,44.06a1.32,1.32,0,0,1,.48-.06c.31,0,.61,0,.92,0,1.36.08,2.71-.19,4.07-.13a1.83,1.83,0,0,0,.68-.23c.15,0,.13-.22.13-.35a21.49,21.49,0,0,0,0-3.31,34.52,34.52,0,0,1-.14-4.43c0-1.48,0-3,0-4.44,0-.58,0-1.16,0-1.74,0-.42-.09-.48-.5-.4a1.62,1.62,0,0,1-.31,0H76.58c-.18,0-.38,0-.48-.18h5.36a1.32,1.32,0,0,0,.62-.12.4.4,0,0,1,.59.32,3,3,0,0,1,0,.42v9.3a1.59,1.59,0,0,0,.13.8.84.84,0,0,1,.05.39c0,1.14,0,2.29,0,3.44,0,.3-.06.46-.4.56a3.27,3.27,0,0,1-1,.14Z" transform="translate(-0.38 0.13)"/><path class="cls-5" d="M87.67,69.83c.09.12.22.09.34.09h1.46c.2,0,.3.08.35.3a13.44,13.44,0,0,1,.18,3c0,.53,0,.56-.54.56q-1.08,0-2.16,0c-.47,0-.59-.12-.59-.57V70.38a.72.72,0,0,1,0-.21c.11-.28.24-.55-.14-.74,0,0,0-.17,0-.26V66.24c0-.3.13-.41.42-.41.82,0,1.65,0,2.47,0,.28,0,.4.11.4.4v3c0,.38-.17.54-.54.54H88C87.86,69.74,87.74,69.71,87.67,69.83Z" transform="translate(-0.38 0.13)"/><path class="cls-4" d="M89,82.14c.18.15.36.09.52.1.39,0,.45.06.45.44,0,1,0,1.95,0,2.93,0,.29-.12.42-.42.41-.61,0-1.22,0-1.83,0s-.68-.21-.68-.69V82.62c0-.52,0-.53.51-.56.08,0,.17,0,.23-.09-.1-.13-.25-.09-.38-.09-.46,0-.59-.18-.5-.62a2.52,2.52,0,0,0,0-.48V78.49a.29.29,0,0,1,.33-.33h2.44a.55.55,0,0,1,.45.79,1.33,1.33,0,0,0-.12.59q0,1,0,2.07c0,.39-.06.44-.44.45A.93.93,0,0,0,89,82.14Z" transform="translate(-0.38 0.13)"/><path class="cls-4" d="M66.22,80.35a.33.33,0,0,1,.35-.18,8.81,8.81,0,0,1,.89,0,4.65,4.65,0,0,0,1.39-.23c.22,0,.29-.18.23-.43a3.9,3.9,0,0,1-.11-1c0-.58,0-1.16,0-1.73a5,5,0,0,0-.33-1.87.93.93,0,0,1,0-.24c.08-1.5-.18-3-.13-4.5,0-.58,0-1.16,0-1.74a3.27,3.27,0,0,0-.13-1.07,1.42,1.42,0,0,1,0-1.07.31.31,0,0,0-.34-.46,43,43,0,0,1-4.54.09.84.84,0,0,1-.4-.12s0,0,0-.06a4.14,4.14,0,0,0,.79.06H67a2.1,2.1,0,0,0,.86-.13c.43-.18.82,0,.71.46a8.18,8.18,0,0,0,0,2,24.94,24.94,0,0,0,0,3.35c.12,1,.1,2.08.17,3.11a4.05,4.05,0,0,0,.22.88,2.3,2.3,0,0,1,.13.74c0,.59,0,1.17,0,1.76a2.4,2.4,0,0,0,.13,1,1.41,1.41,0,0,1,0,.84c0,.21-.2.29-.4.36a7.93,7.93,0,0,1-2.38.18Z" transform="translate(-0.38 0.13)"/><path class="cls-4" d="M63.11,65.77v.06c-1.45-.08-2.89.2-4.34.13a8.77,8.77,0,0,1-2.5.19.61.61,0,0,0-.66.71q0,6.4,0,12.8a3.82,3.82,0,0,0,.22.9c0,.13.16.14.28.16a.26.26,0,0,1-.3.16c-.13,0-.15-.15-.2-.25a3.16,3.16,0,0,1-.18-1.43c0-4.15,0-8.31,0-12.46,0-.59.3-.79.8-.77,1.43,0,2.85-.17,4.28-.16C61.36,65.81,62.23,65.79,63.11,65.77Z" transform="translate(-0.38 0.13)"/><path class="cls-4" d="M73.66,28.81c-.12.21-.33.18-.52.18H68.51c-.56,0-.58,0-.58.58,0,.26,0,.51,0,.77a1.35,1.35,0,0,1-.14.76.49.49,0,0,0,0,.21,25.88,25.88,0,0,0,0,3.84c.2,1.38,0,2.75.13,4.12a1.28,1.28,0,0,1-.12.74.68.68,0,0,0,0,.35c0,1,0,2,0,3,0,.39.06.36.43.48a6.84,6.84,0,0,0,2,.17.36.36,0,0,1-.21.11A7.76,7.76,0,0,1,67.82,44c-.16,0-.19-.17-.19-.31a34.74,34.74,0,0,1,0-3.68A23.09,23.09,0,0,0,67.71,36c-.11-1.49-.08-3-.07-4.47,0-.79.12-1.59.11-2.39a.28.28,0,0,1,.3-.31h5.61Z" transform="translate(-0.38 0.13)"/><path class="cls-4" d="M56.16,44.18v-.12c0-.17.15-.14.25-.15.45-.07.58-.18.57-.63a10.73,10.73,0,0,0-.1-2.4,2,2,0,0,1,0-.42V30.07c0-.86-.07-.92-.92-.93H54.23a2.51,2.51,0,0,0-1,.15.73.73,0,0,1-.33,0H51.57a2.8,2.8,0,0,1-1.11-.13,1.4,1.4,0,0,0-.54-.05H48a.45.45,0,0,1-.41-.15h0a1.7,1.7,0,0,1,.51-.06c1.41,0,2.82.07,4.23.06a1.24,1.24,0,0,0,.71-.13.74.74,0,0,1,.39-.05h3.17c.46,0,.5.05.5.51V40.08a1.63,1.63,0,0,0,.14.84.68.68,0,0,1,0,.29c0,.85,0,1.69,0,2.53,0,.37-.06.43-.42.44Z" transform="translate(-0.38 0.13)"/><path class="cls-4" d="M93.66,33.32c0,.33,0,.55,0,.77,0,.61-.37.88-.94.64a.78.78,0,0,0-.74,0,1.35,1.35,0,0,1-.57,0H90.19c-.23,0-.37-.1-.37-.35,0-.45,0-.91,0-1.36a.59.59,0,0,1,.09-.32.28.28,0,0,0,0-.29,3.63,3.63,0,0,1-.11-1.5c0-.19.14-.26.31-.26.78,0,1.56,0,2.34,0,.28,0,.53.19.82.21a.19.19,0,0,1,.17.22C93.38,31.92,93.81,32.65,93.66,33.32Z" transform="translate(-0.38 0.13)"/><path class="cls-4" d="M38,72.66H36.7c-.25,0-.37-.11-.37-.36,0-.42,0-.83,0-1.25a2.59,2.59,0,0,0-.14-1.1,1.74,1.74,0,0,1,0-.82.26.26,0,0,1,.27-.24h.51a2.39,2.39,0,0,0,.92-.13,2.24,2.24,0,0,1,1,0c.16,0,.21.15.21.29a.52.52,0,0,0,.41.56.46.46,0,0,1,.32.47,7.81,7.81,0,0,1,0,1.28,8.18,8.18,0,0,0-.19,1.12c0,.2-.18.22-.34.22Z" transform="translate(-0.38 0.13)"/><path class="cls-4" d="M90,28.48c0-.51,0-1,0-1.52a.66.66,0,0,1,.68-.7,3,3,0,0,1,1.38.13,1.52,1.52,0,0,0,.57,0,1.7,1.7,0,0,1,.59.1.34.34,0,0,1,.25.35V30.2c0,.23-.14.31-.36.31H90.35c-.24,0-.34-.12-.34-.35V28.48Z" transform="translate(-0.38 0.13)"/><path class="cls-4" d="M89.64,28.57v1.52c0,.36-.07.42-.44.42H86.76c-.29,0-.42-.11-.42-.42,0-.48,0-1,0-1.46a2.34,2.34,0,0,0-.14-1,1.74,1.74,0,0,1,0-.85.23.23,0,0,1,.25-.22h2.93c.22,0,.28.17.28.36v1.65Z" transform="translate(-0.38 0.13)"/><path class="cls-4" d="M86.9,75.9c0-.49,0-1,0-1.49,0-.28.12-.41.4-.4h2.32c.28,0,.4.12.4.4s0,.81,0,1.22a2.71,2.71,0,0,0,.14,1.16,1.43,1.43,0,0,1,0,.82.41.41,0,0,1-.43.35c-.79,0-1.58,0-2.38,0-.29,0-.44-.19-.45-.5,0-.52,0-1,0-1.56Z" transform="translate(-0.38 0.13)"/><path class="cls-5" d="M39.63,79.08v1.28c0,.5,0,.54-.54.54a6.72,6.72,0,0,0-1.27,0,3.45,3.45,0,0,1-1.2,0c-.3-.05-.46-.19-.46-.5,0-1,0-2,0-2.92,0-.24.11-.36.35-.36.87,0,1.75,0,2.62,0a.46.46,0,0,1,.5.52c0,.48,0,1,0,1.44Z" transform="translate(-0.38 0.13)"/><path class="cls-4" d="M90,40.86c0-.47,0-.93,0-1.4,0-.28.12-.41.4-.4,1,0,1.91,0,2.86,0,.38,0,.59.18.57.56-.07,1,0,2,0,3a.39.39,0,0,1-.43.42,2.05,2.05,0,0,1-1-.13.84.84,0,0,0-.39,0H90.52a.46.46,0,0,1-.51-.51c0-.49,0-1,0-1.46Z" transform="translate(-0.38 0.13)"/><path class="cls-4" d="M39.81,62.21v1.43c0,.44-.16.6-.58.6H36.94c-.36,0-.42-.07-.42-.44a3.64,3.64,0,0,0,0-1.05,5.12,5.12,0,0,1-.14-1.69c0-.46,0-.42.45-.57a10.12,10.12,0,0,1,2.69-.15c.25,0,.33.14.33.37,0,.5,0,1,0,1.49Z" transform="translate(-0.38 0.13)"/><path class="cls-4" d="M39.44,44.39v1.46c0,.28-.11.41-.4.4H37.76a1.66,1.66,0,0,0-.65.12A.9.9,0,0,1,36,45.62c0-.51,0-1,0-1.53a2.13,2.13,0,0,0-.14-.89c-.19-.45,0-.66.48-.67h.91a2.38,2.38,0,0,0,1-.13,1.67,1.67,0,0,1,.94,0,.42.42,0,0,1,.33.48v1.53Z" transform="translate(-0.38 0.13)"/><path class="cls-4" d="M86.89,84.05v1.4c0,.27-.1.39-.38.39-.85,0-1.7,0-2.55,0-.38,0-.53-.16-.54-.52,0-1,0-1.93,0-2.89,0-.26.12-.37.37-.37.61,0,1.22,0,1.83,0,.36,0,.71.2,1.09.21.17,0,.18.19.18.34Z" transform="translate(-0.38 0.13)"/><path class="cls-5" d="M84.7,77.79c-.42,0-.83,0-1.25,0s-.4-.12-.4-.4c0-.75,0-1.49,0-2.23a1.26,1.26,0,0,0-.11-.53c-.2-.44,0-.74.48-.74s1.26,0,1.89,0c.33,0,.65.14,1,.14.16,0,.22.13.22.28,0,.73,0,1.46,0,2.19,0,.34-.17.68-.17,1,0,.21-.18.25-.35.25Z" transform="translate(-0.38 0.13)"/><path class="cls-4" d="M86.16,67.71c0,.47,0,.94,0,1.4s-.06.44-.45.44c-.8,0-1.6,0-2.41,0-.47,0-.61-.15-.61-.63a4,4,0,0,1,.12-.83,3,3,0,0,0-.06-1.64.56.56,0,0,1,.08-.65.45.45,0,0,1,.61,0,.88.88,0,0,0,.45.08c.62,0,1.24,0,1.86,0,.29,0,.42.12.41.42C86.15,66.74,86.16,67.22,86.16,67.71Z" transform="translate(-0.38 0.13)"/><path class="cls-5" d="M39.08,52.47c0,.48,0,1,0,1.43,0,.28-.14.35-.4.42a7.56,7.56,0,0,1-2.07.17,1.19,1.19,0,0,1-.33,0c-.42-.12-.42-.24-.51-.67a11.64,11.64,0,0,1-.17-2.5V51c0-.21.1-.32.32-.33a26.91,26.91,0,0,1,2.69-.13c.41,0,.46.06.47.46Z" transform="translate(-0.38 0.13)"/><path class="cls-4" d="M35.78,75c0,.5,0,1,0,1.52,0,.3-.12.42-.42.42H32.9c-.27,0-.34-.13-.43-.39a9.91,9.91,0,0,1-.16-2.77c0-.56.19-.75.74-.75h2.29c.38,0,.44.06.44.44S35.78,74.49,35.78,75Z" transform="translate(-0.38 0.13)"/><path class="cls-5" d="M39.44,36.09v1.53c0,.28-.11.4-.4.4-.83,0-1.66,0-2.5,0-.2,0-.38,0-.38-.29a25.35,25.35,0,0,1-.2-2.89c0-.5,0-.54.54-.54a8.49,8.49,0,0,0,1,0,7.38,7.38,0,0,1,1.25-.18c.68,0,.68,0,.68.7v1.28Z" transform="translate(-0.38 0.13)"/><path class="cls-4" d="M35.6,40.4v1.52c0,.37-.07.42-.44.43H33.88a1.77,1.77,0,0,0-.6.08,1.56,1.56,0,0,1-1-.12c-.12,0-.14-.16-.14-.28V38.71a.28.28,0,0,1,.32-.32h2.75c.24,0,.34.13.34.36V40.4Z" transform="translate(-0.38 0.13)"/><path class="cls-4" d="M34.35,56.74h1.37c.29,0,.43.1.43.41,0,.91,0,1.83,0,2.74,0,.27-.11.39-.38.39H33.05a.33.33,0,0,1-.38-.29,11.29,11.29,0,0,1-.18-2.72c0-.48,0-.52.52-.52Z" transform="translate(-0.38 0.13)"/><path class="cls-4" d="M37.89,29.66H36.68a.32.32,0,0,1-.35-.27A8.42,8.42,0,0,1,36.15,27c0-.44.05-.51.49-.48.78.06,1.53-.17,2.31-.13.58,0,.67.09.68.67s0,1.3,0,1.95c0,.46-.15.6-.6.61H37.89Z" transform="translate(-0.38 0.13)"/><path class="cls-4" d="M38.4,87c0,.45,0,.89,0,1.34,0,.29-.11.4-.41.44a7.3,7.3,0,0,1-1.55.18c-.43,0-.5-.06-.48-.48.06-.86-.29-1.67-.2-2.53.06-.58,0-.6.62-.6a2.26,2.26,0,0,0,.92-.13,1.71,1.71,0,0,1,.87,0c.2,0,.22.19.22.35V87Z" transform="translate(-0.38 0.13)"/><path class="cls-4" d="M85.79,59.25c0,.48,0,1,0,1.43s-.13.51-.52.51H83.44A2.14,2.14,0,0,1,82.7,61c-.15,0-.13-.21-.13-.34,0-.62,0-1.24,0-1.86a1.35,1.35,0,0,0-.1-.53.64.64,0,0,1,.62-1,2.91,2.91,0,0,1,1.17.13,3.28,3.28,0,0,0,1.09.05c.4,0,.45.06.46.46v1.37Z" transform="translate(-0.38 0.13)"/><path class="cls-3" d="M75.92,36.53V43c0,.48,0,.52-.52.52H74.21c-.26,0-.38-.12-.37-.37s0-.22,0-.34V30.19c0-.14,0-.27,0-.4a.27.27,0,0,1,.3-.3h1.46a.27.27,0,0,1,.3.3c0,.11,0,.22,0,.34Z" transform="translate(-0.38 0.13)"/><path class="cls-3" d="M61.16,73.34V67.15c0-.48,0-.52.51-.52l.67,0c.27,0,.42.14.4.42a1.61,1.61,0,0,0,0,.22V79.38c0,.59-.05.65-.63.66h-.64c-.2,0-.31-.1-.31-.3v-6.4Z" transform="translate(-0.38 0.13)"/><path class="cls-2" d="M36.59,54.85c1.47,0,2.95-.06,4.42,0,1,.06,2.07.19,3.11.16a1.6,1.6,0,0,0,.8-.14.84.84,0,0,1,.42,0c1.4,0,2.8,0,4.21,0,.83,0,1.63-.27,2.47-.21s1.64,0,2.46,0a1.86,1.86,0,0,1,.78.09c.17.07.32-.09.5-.09a11.17,11.17,0,0,1,1.92,0,24.54,24.54,0,0,0,4.45.15c1.49,0,3,0,4.46,0a1.49,1.49,0,0,1,.77.14.67.67,0,0,0,.32,0h1.1a2.18,2.18,0,0,0,1-.15.85.85,0,0,1,.36,0h1.65A2.19,2.19,0,0,0,73,54.7a.85.85,0,0,1,.36,0h2.84a2.3,2.3,0,0,1,1.13.15,1,1,0,0,0,.42,0c1.49,0,3-.1,4.45,0,2,.17,4,.1,6,.18a8,8,0,0,0,1.69.07,5.34,5.34,0,0,1,1.64-.08,25.74,25.74,0,0,0,2.91.11c.31,0,.43.22.31.54l-.18.55a.57.57,0,0,1-.6.44c-1.53.07-3.06-.16-4.59-.13a.51.51,0,0,1-.29-.08c-.15-.09-.27,0-.43,0a3.19,3.19,0,0,1-1.68,0,1.61,1.61,0,0,0-.38-.08H76.3c-2.56.38-5.14.09-7.71.18a1.48,1.48,0,0,1-.77-.13.78.78,0,0,0-.38,0c-1.59,0-3.18,0-4.76,0a12.79,12.79,0,0,1-1.53.18,1.8,1.8,0,0,1-.76-.14.75.75,0,0,0-.42,0h-3.3a1.12,1.12,0,0,1-.59-.12.37.37,0,0,0-.38,0,1.38,1.38,0,0,1-.8.14,34.14,34.14,0,0,1-3.65,0c-1.18-.13-2.37,0-3.54-.2-.67-.09-1.34-.11-2-.14a1,1,0,0,0-.56.11.23.23,0,0,1-.24,0A1.63,1.63,0,0,0,44,56H42.89a2.46,2.46,0,0,0-1.17.15.72.72,0,0,1-.36,0H32.52a.71.71,0,0,1-.77-.45,6.14,6.14,0,0,0-.31-.63c-.12-.21,0-.27.18-.26h5Z" transform="translate(-0.38 0.13)"/><path class="cls-2" d="M93.69,45.4c0,.5,0,1,0,1.49,0,.15,0,.21-.18.21-.74,0-1.48,0-2.22,0-.38,0-.54-.25-.63-.6a7.44,7.44,0,0,1-.11-1.76,2,2,0,0,0-.14-1,.33.33,0,0,1,.08-.39c.1-.11.2-.06.3,0a.29.29,0,0,0,.15,0,15.43,15.43,0,0,1,2.15,0c.45,0,.57.11.57.57s0,1,0,1.43Z" transform="translate(-0.38 0.13)"/><path class="cls-2" d="M90,45.21c0,.43,0,.87,0,1.3s-.1.42-.39.42H87.46c-.28,0-.39-.13-.38-.4V44.44a1.32,1.32,0,0,0-.12-.62c-.13-.26,0-.42.26-.43.77,0,1.55,0,2.32,0,.34,0,.46.14.46.5S90,44.77,90,45.21Z" transform="translate(-0.38 0.13)"/><path class="cls-2" d="M93.79,49.49c0,.4,0,.81,0,1.21s-.07.47-.48.39a1.62,1.62,0,0,0-.31,0H91.77c-.66,0-.87-.18-.9-.85s0-1.51,0-2.26a.42.42,0,0,1,.64-.41,1.27,1.27,0,0,0,.54.11h1.21c.39,0,.51.12.52.52s0,.87,0,1.31Z" transform="translate(-0.38 0.13)"/><path class="cls-2" d="M89,51.56c.4,0,.81,0,1.21,0s.46.14.37.49a2.09,2.09,0,0,0,0,.36c0,.54,0,1.07,0,1.61a.54.54,0,0,1-.49.62,1.14,1.14,0,0,1-.66,0,3.23,3.23,0,0,0-1.41-.15c-.52,0-.55,0-.55-.56V52.11c0-.52,0-.55.56-.55Z" transform="translate(-0.38 0.13)"/><path class="cls-2" d="M91,53c0-.35,0-.71,0-1.06s.11-.38.36-.38h2c.21,0,.31.08.39.3A7.92,7.92,0,0,1,94,54.38a.25.25,0,0,1-.29.28,5,5,0,0,1-1.92-.14.71.71,0,0,0-.21,0c-.47,0-.5-.05-.5-.51V53Z" transform="translate(-0.38 0.13)"/><path class="cls-2" d="M94,21.79a33.32,33.32,0,0,0-4.13.18c-1.56.17-3.1.07-4.64.12s-3.11,0-4.67,0c-.5,0-1-.17-1.5-.16-1.17,0-2.34-.06-3.5,0a1.5,1.5,0,0,0-.69.11c-.19.09-.42,0-.63,0-1.52.08-3,.05-4.55.05a1.46,1.46,0,0,1-.77-.13.37.37,0,0,0-.38,0,1,1,0,0,1-.91,0c-.07,0-.17-.09-.23-.06a3.5,3.5,0,0,1-1.25,0c-9.81,0-19.63,0-29.45,0-2.07,0-4.14-.06-6.21-.1a1,1,0,0,1-.24,0,.15.15,0,0,1-.11-.19c0-.1.11,0,.18,0,.4,0,.79.07,1.19.07H58.87a1.7,1.7,0,0,1,.83.14,1,1,0,0,0,.39,0H90.73c.77-.25,1.59,0,2.34-.22a13.44,13.44,0,0,1,2.27-.14h.09c.12,0,.27,0,.26.19s-.14.16-.25.17-.3,0-.46,0Z" transform="translate(-0.38 0.13)"/><path class="cls-2" d="M32.86,62.71c0-.5,0-1,0-1.49s.07-.45.44-.42c.19,0,.33-.15.52-.15.55,0,1.1,0,1.65,0s.48.22.38.6a3.71,3.71,0,0,0,0,1.59s0,0,0,.06c-.15.47.18,1-.13,1.44a.52.52,0,0,1-.46.26H33.21c-.26,0-.36-.13-.35-.38Z" transform="translate(-0.38 0.13)"/><path class="cls-2" d="M35.78,70.87c0,.41,0,.81,0,1.22s-.16.57-.55.57c-.66,0-1.32,0-2,0-.2,0-.38,0-.39-.28a24.87,24.87,0,0,1-.2-2.59c.05-.6.13-.72.72-.72h1.71c.57,0,.69.12.69.7v1.1Z" transform="translate(-0.38 0.13)"/><path class="cls-2" d="M32.86,66.81c0-.44,0-.88,0-1.31s.13-.41.41-.4.55,0,.82,0a3.36,3.36,0,0,0,1-.09,1,1,0,0,1,.6,0c.22.07.33.2.2.44a.45.45,0,0,0,0,.46.25.25,0,0,1,0,.14,7,7,0,0,0-.11,1.88c0,.43-.15.57-.6.58h-1a1.06,1.06,0,0,0-.39.06c-.54.23-.9,0-.9-.58,0-.4,0-.8,0-1.19Z" transform="translate(-0.38 0.13)"/><path class="cls-2" d="M35.6,36.28c0,.4,0,.79,0,1.19a.44.44,0,0,1-.43.52,21.11,21.11,0,0,1-2.25,0c-.14,0-.2-.11-.24-.24a5,5,0,0,1-.2-1.67,2.46,2.46,0,0,0-.12-1.23c-.08-.16.06-.24.2-.26a8.77,8.77,0,0,1,1-.12c.48,0,1,0,1.46,0s.54.13.55.55Z" transform="translate(-0.38 0.13)"/><path class="cls-2" d="M35.6,32v1.25a.56.56,0,0,1-.58.63c-.28,0-.55,0-.83,0a1.82,1.82,0,0,0-.76.13.5.5,0,0,1-.75-.49c0-.26,0-.51,0-.76a2.47,2.47,0,0,0-.13-.89,2.93,2.93,0,0,1,0-1.18c0-.16.14-.21.29-.22h.79a2.44,2.44,0,0,0,1.13-.15,1.22,1.22,0,0,1,.63,0c.22,0,.25.18.25.36V32Z" transform="translate(-0.38 0.13)"/><path class="cls-2" d="M35.6,28.3v1.18c0,.34-.13.47-.46.48H32.76c-.39,0-.54-.27-.38-.62a1.12,1.12,0,0,0,.11-.53V27.29c0-.2,0-.37.28-.36.78,0,1.52-.29,2.31-.2.47.05.52.05.52.53v1Z" transform="translate(-0.38 0.13)"/><path class="cls-2" d="M32.19,44.14v-1a.29.29,0,0,1,.32-.32h.85a2.33,2.33,0,0,0,1-.15,1.19,1.19,0,0,1,.7,0,.39.39,0,0,1,.28.54,3.18,3.18,0,0,0,0,1.44,4,4,0,0,1,0,1.25.31.31,0,0,1-.33.33c-.77,0-1.51.3-2.29.2-.4,0-.47-.06-.46-.46A13.5,13.5,0,0,1,32.19,44.14Z" transform="translate(-0.38 0.13)"/><path class="cls-2" d="M35.41,48.56c0,.44,0,.89,0,1.34s-.13.49-.5.5h-2c-.4,0-.55-.16-.56-.56s0-.94,0-1.41a3.44,3.44,0,0,0-.09-.9c-.11-.4,0-.55.43-.54.75,0,1.47-.28,2.23-.2.5.06.54.05.54.55v1.22Z" transform="translate(-0.38 0.13)"/><path class="cls-2" d="M35.29,52.5v1.25c0,.26-.11.37-.37.37H33c-.24,0-.31-.12-.36-.35a8.22,8.22,0,0,1-.19-2.1.78.78,0,0,0,0-.21c-.14-.37,0-.55.38-.56s1,0,1.46,0a1,1,0,0,0,.42-.07c.35-.15.57,0,.59.37s0,.88,0,1.31Z" transform="translate(-0.38 0.13)"/><path class="cls-2" d="M43,59.31h1.52a2.42,2.42,0,0,0,1.16-.15,1,1,0,0,1,.42,0,16.3,16.3,0,0,0,2.8-.05A20,20,0,0,1,51.7,59c.72,0,.92.18.92.92V61.6a7.42,7.42,0,0,1,0,1.49.93.93,0,0,0,.09.51.59.59,0,0,1-.46.82,2.54,2.54,0,0,1-.39,0,2.19,2.19,0,0,0-1.1.15.72.72,0,0,1-.33,0H48.72a3.67,3.67,0,0,0-.93.09,1.52,1.52,0,0,1-.82,0,.63.63,0,0,0-.27,0,26.43,26.43,0,0,1-4,.06,8.08,8.08,0,0,0-1.1,0,3,3,0,0,1-1-.14c-.18,0-.25-.17-.18-.4A1.66,1.66,0,0,0,40.37,63a.77.77,0,0,1,0-.68,1.37,1.37,0,0,0,.12-.62V59.74c0-.37.07-.43.43-.43.7,0,1.41,0,2.11,0Z" transform="translate(-0.38 0.13)"/><path class="cls-2" d="M89.64,59.4v1.52c0,.43-.15.59-.57.58a3.2,3.2,0,0,1-1.5-.15.58.58,0,0,0-.39,0c-.54.13-.83-.1-.83-.65,0-.88,0-1.77,0-2.65,0-.39.06-.45.44-.45h2a1.18,1.18,0,0,0,.45-.07c.27-.12.35-.07.35.22,0,.55,0,1.1,0,1.65Z" transform="translate(-0.38 0.13)"/><path class="cls-2" d="M88,61.87h1.13c.46,0,.61.27.42.69a1.18,1.18,0,0,0-.07.45c0,.61,0,1.22,0,1.82s-.14.63-.61.64-.89,0-1.34,0a3,3,0,0,1-.84-.24c-.13,0-.13-.19-.13-.31v-1.1a2,2,0,0,0-.14-.92c-.14-.29.06-.58.1-.87s.22-.16.37-.16Z" transform="translate(-0.38 0.13)"/><path class="cls-2" d="M35.6,79v1.3c0,.41-.15.58-.55.56-.66,0-1.28.18-1.94.14s-.64-.12-.61-.64a15.61,15.61,0,0,1-.19-2.16,1.92,1.92,0,0,0,0-.24c0-.37.13-.49.5-.5h1.34a1.22,1.22,0,0,0,.65-.12.85.85,0,0,1,.45-.06c.24,0,.35.12.35.36V79Z" transform="translate(-0.38 0.13)"/><path class="cls-2" d="M35.6,83.13c0,.43,0,.87,0,1.31s-.16.54-.54.54h-2c-.23,0-.32-.11-.39-.33a9.41,9.41,0,0,1-.16-2.8.24.24,0,0,1,.26-.28,21.55,21.55,0,0,1,2.41-.2c.36.05.42.07.43.44Z" transform="translate(-0.38 0.13)"/><path class="cls-2" d="M47.62,29h2.07c.41,0,.82.08,1.23.13A5.15,5.15,0,0,0,53.26,29a1,1,0,0,1,.39-.05h2.84c.48,0,.52,0,.52.53,0,3.56,0,7.11,0,10.67,0,1.08.11,2.16.1,3.25,0,.61,0,.62-.61.62h-.37a.67.67,0,0,1-.46.12h-13c-.39,0-.45-.06-.45-.47V41.58a.87.87,0,0,1,.07-.42.67.67,0,0,0,0-.72.25.25,0,0,1,0-.26,1.51,1.51,0,0,0,.13-.86,18.61,18.61,0,0,0,0-3.17,37.72,37.72,0,0,1-.14-4,1.29,1.29,0,0,1,.13-.74,1,1,0,0,0,0-.45c0-.49,0-1,0-1.49s.09-.45.46-.36a1.05,1.05,0,0,0,.31,0h4C47.34,29.17,47.52,29.19,47.62,29Z" transform="translate(-0.38 0.13)"/><path class="cls-2" d="M91.74,35.15h1.37a.32.32,0,0,1,.37.37V38.2c0,.16,0,.36-.22.34-.59,0-1.14.25-1.73.21a1.2,1.2,0,0,1-.53-.11.68.68,0,0,0-.65,0c-.25.13-.33,0-.34-.21a1.26,1.26,0,0,0-.12-.47.49.49,0,0,1-.06-.29,9.12,9.12,0,0,0,0-1.81c0-.51.21-.71.73-.71Z" transform="translate(-0.38 0.13)"/><path class="cls-2" d="M89.45,37c0,.44,0,.89,0,1.34,0,.25-.11.37-.37.37H87.23c-.34,0-.51-.17-.51-.51,0-.91,0-1.81,0-2.72a.32.32,0,0,1,.37-.37h1.86c.35,0,.5.15.51.5S89.45,36.58,89.45,37Z" transform="translate(-0.38 0.13)"/><path class="cls-2" d="M89.64,67.7V69c0,.4-.15.54-.54.55-.56,0-1.12,0-1.67,0s-.75-.2-.73-.71c0-.82,0-1.63,0-2.44,0-.37.07-.43.43-.43h2.1c.28,0,.41.12.4.41S89.64,67.25,89.64,67.7Z" transform="translate(-0.38 0.13)"/><path class="cls-2" d="M88.42,73.7h-1c-.38,0-.55-.17-.55-.54,0-.9,0-1.81,0-2.71,0-.43.18-.54.57-.4a1.67,1.67,0,0,0,.63,0h1.19a.3.3,0,0,1,.35.29,13.14,13.14,0,0,1,.18,2.8c0,.45,0,.5-.48.5Z" transform="translate(-0.38 0.13)"/><path class="cls-2" d="M88.45,78.34c.34,0,.67,0,1,0s.51.23.41.59a1.27,1.27,0,0,0-.05.39v2.07c0,.43,0,.46-.47.49a12.28,12.28,0,0,1-1.91-.14c-.23,0-.36-.15-.28-.39s-.07-.48-.08-.72V78.68a.3.3,0,0,1,.34-.34Z" transform="translate(-0.38 0.13)"/><path class="cls-2" d="M89.82,84.16v1.31c0,.25-.11.37-.36.37-.52,0-1,0-1.56,0s-.73-.23-.71-.74c0-.8,0-1.6,0-2.4,0-.39.06-.45.45-.45a2.92,2.92,0,0,1,1.31.15,1,1,0,0,0,.42,0c.38,0,.44.07.44.46v1.28Z" transform="translate(-0.38 0.13)"/><path class="cls-2" d="M91.43,30.88A6.58,6.58,0,0,1,93,31c.21.05.3.14.3.34s0,.27,0,.4a1.89,1.89,0,0,0,.13.77,2.63,2.63,0,0,1,0,.93,5.43,5.43,0,0,1,0,.7.43.43,0,0,1-.65.39,1.14,1.14,0,0,0-.94,0,2.47,2.47,0,0,1-1,.08c-.88,0-.83.06-.82-.82a1.89,1.89,0,0,1,.14-1,.43.43,0,0,0,0-.41,2.08,2.08,0,0,1-.14-1.1c0-.26.12-.37.37-.37S91,30.88,91.43,30.88Z" transform="translate(-0.38 0.13)"/><path class="cls-2" d="M38,72.48H37c-.37,0-.43-.06-.43-.45s0-.79,0-1.19a2.64,2.64,0,0,0-.14-1.07c-.19-.48,0-.7.51-.7a2.7,2.7,0,0,0,1.19-.15,1.09,1.09,0,0,1,.57,0c.18,0,.24.14.25.3a.6.6,0,0,0,.42.57c.18.07.32.19.19.42s0,.18,0,.26a1.19,1.19,0,0,1,0,.89,1.89,1.89,0,0,0-.13.77c0,.27-.12.39-.39.38s-.73,0-1.09,0Z" transform="translate(-0.38 0.13)"/><path class="cls-2" d="M90.19,28.52c0-.47,0-.94,0-1.4a.64.64,0,0,1,.67-.68,2.45,2.45,0,0,1,.93.07,3.89,3.89,0,0,0,.76,0c.5.05.78.2.76.75,0,.86,0,1.71,0,2.57,0,.4-.06.45-.47.45H90.61c-.3,0-.43-.12-.42-.42C90.2,29.45,90.19,29,90.19,28.52Z" transform="translate(-0.38 0.13)"/><path class="cls-2" d="M89.46,28.56q0,.69,0,1.38c0,.28-.13.4-.41.4q-1,0-2.1,0c-.3,0-.43-.12-.42-.42,0-.49,0-1,0-1.46a2.69,2.69,0,0,0-.14-1c-.2-.49,0-.71.5-.71H89c.37,0,.43.06.43.42S89.46,28.1,89.46,28.56Z" transform="translate(-0.38 0.13)"/><path class="cls-2" d="M88.46,74.19c.32,0,.65,0,1,0s.39.11.39.38c0,.54,0,1.08,0,1.62a6.11,6.11,0,0,0,.12,1.2c0,.19-.13.37-.4.39s-.69,0-1,0h-1a.38.38,0,0,1-.42-.39c0-1,0-2,0-2.93,0-.21.15-.27.33-.27Z" transform="translate(-0.38 0.13)"/><path class="cls-2" d="M39.44,79.09c0,.39,0,.77,0,1.16s0,.46-.48.47a10.41,10.41,0,0,0-1.25,0,2.88,2.88,0,0,1-.88,0c-.34-.06-.49-.19-.49-.54,0-.84,0-1.67,0-2.5,0-.26.11-.38.37-.38h2.22c.37,0,.51.15.52.53s0,.83,0,1.25Z" transform="translate(-0.38 0.13)"/><path class="cls-2" d="M91.87,39.24c.41,0,.83,0,1.25,0s.54.17.54.55c0,.79,0,1.58,0,2.37s-.4.79-.87.64a4,4,0,0,0-1.23-.14h-.88c-.34,0-.49-.16-.5-.49,0-.86,0-1.72,0-2.58a.3.3,0,0,1,.34-.34Z" transform="translate(-0.38 0.13)"/><path class="cls-2" d="M39.62,62.23c0,.43,0,.86,0,1.28s-.16.55-.54.55h-2c-.25,0-.38-.11-.37-.36v-.58a3.14,3.14,0,0,0-.13-.86,4.1,4.1,0,0,1,0-1.4c0-.11.09-.17.2-.2a11,11,0,0,1,2.63-.12c.22,0,.25.18.25.35Z" transform="translate(-0.38 0.13)"/><path class="cls-2" d="M39.26,44.39c0,.43,0,.86,0,1.28s-.12.41-.4.4H37.54a1.45,1.45,0,0,0-.5.08.71.71,0,0,1-.89-.63V43.9a1.71,1.71,0,0,0-.13-.8c-.13-.26,0-.43.29-.44h1a3.71,3.71,0,0,0,1-.1,1.41,1.41,0,0,1,.46,0,.41.41,0,0,1,.43.45v1.4Z" transform="translate(-0.38 0.13)"/><path class="cls-2" d="M83.6,83.86c0-.42,0-.83,0-1.25,0-.26.12-.37.37-.37.49,0,1,0,1.46,0s.72.21,1.1.21c.14,0,.17.15.17.28,0,.86,0,1.73,0,2.59,0,.23-.13.32-.35.32H84.08c-.32,0-.46-.16-.47-.48s0-.88,0-1.31Z" transform="translate(-0.38 0.13)"/><path class="cls-2" d="M83.23,76.06V75a1,1,0,0,0-.07-.41c-.13-.28,0-.55.28-.55a5.62,5.62,0,0,1,2.16.12,1.17,1.17,0,0,0,.27,0c.44,0,.47,0,.47.51s0,.93,0,1.4-.24.85-.21,1.31c0,.13-.13.19-.26.19H83.52c-.22,0-.28-.16-.28-.35V76.06Z" transform="translate(-0.38 0.13)"/><path class="cls-2" d="M86,67.65v1.22c0,.45,0,.5-.48.5h-2c-.58,0-.78-.31-.6-.88a3.77,3.77,0,0,0,0-2.23c0-.22.06-.39.27-.36a17.82,17.82,0,0,0,2.31,0c.43,0,.48.06.48.48Z" transform="translate(-0.38 0.13)"/><path class="cls-2" d="M38.89,52.43v1.34c0,.16,0,.31-.23.34a7.47,7.47,0,0,1-1.95.2,1.43,1.43,0,0,1-.57-.19.28.28,0,0,1-.16-.24,11.67,11.67,0,0,1-.2-2.5c0-.44,0-.49.5-.49a11.86,11.86,0,0,1,2-.19,1,1,0,0,0,.24,0c.29,0,.4.13.4.4,0,.44,0,.88,0,1.32Z" transform="translate(-0.38 0.13)"/><path class="cls-2" d="M35.6,75v1.4c0,.25-.11.37-.37.37H33c-.23,0-.3-.12-.38-.34A8.47,8.47,0,0,1,32.49,74a1.17,1.17,0,0,1,.17-.63.35.35,0,0,1,.34-.21h2.25c.24,0,.35.12.35.35Z" transform="translate(-0.38 0.13)"/><path class="cls-2" d="M39.26,36.1c0,.47,0,.94,0,1.41,0,.26-.11.39-.38.39H36.71c-.18,0-.37,0-.36-.27,0-.89-.31-1.75-.21-2.65,0-.44.06-.49.5-.5h.76a1.76,1.76,0,0,0,.74-.13,2,2,0,0,1,.9,0c.2,0,.22.19.22.35Z" transform="translate(-0.38 0.13)"/><path class="cls-2" d="M32.31,40.34V39c0-.29.12-.41.4-.4H35c.26,0,.39.1.39.38,0,.94,0,1.89,0,2.83,0,.27-.12.39-.39.39-.44,0-.87,0-1.31,0a1.36,1.36,0,0,0-.59.1.66.66,0,0,1-.82-.56c0-.46,0-.92,0-1.37Z" transform="translate(-0.38 0.13)"/><path class="cls-2" d="M34.35,56.93H35.6c.26,0,.37.12.37.37,0,.83,0,1.67,0,2.5,0,.24-.1.36-.34.36H33.21c-.18,0-.32-.06-.35-.27a12.73,12.73,0,0,1-.19-2.47c0-.44,0-.49.49-.49Z" transform="translate(-0.38 0.13)"/><path class="cls-2" d="M37.89,29.48h-1c-.17,0-.29-.06-.33-.25a8.25,8.25,0,0,1-.19-2c0-.39.06-.45.44-.45s.63,0,.95,0a5.36,5.36,0,0,1,1-.19c.6,0,.72.13.72.72s0,1.1,0,1.65-.16.56-.58.57h-1Z" transform="translate(-0.38 0.13)"/><path class="cls-2" d="M38.22,87v1.19c0,.28-.09.42-.39.42s-.78.24-1.22.19-.49-.07-.45-.47c.08-.75-.27-1.45-.2-2.19,0-.56,0-.58.59-.59a1.8,1.8,0,0,0,.92-.13.85.85,0,0,1,.36-.05c.27,0,.4.11.39.38Z" transform="translate(-0.38 0.13)"/><path class="cls-2" d="M85.67,59.24c0,.41,0,.82,0,1.22s-.17.54-.54.55-1,0-1.53,0a2.79,2.79,0,0,1-.78-.23c-.14,0-.13-.21-.13-.34V58.67a2.5,2.5,0,0,0,0-.55c-.11-.39,0-.61.41-.68a1.44,1.44,0,0,1,.89.08,2.34,2.34,0,0,0,1,.08c.71,0,.71,0,.71.7v.94Z" transform="translate(-0.38 0.13)"/><path class="cls-5" d="M44.56,62.24a3.77,3.77,0,0,0-1.27.1.41.41,0,0,1-.19,0,3.41,3.41,0,0,0-1.68,0,.26.26,0,0,1-.31-.14.17.17,0,0,1,0-.22.23.23,0,0,1,.33,0,.36.36,0,0,0,.43,0,.65.65,0,0,1,.41-.07c.57,0,1.14,0,1.7.06a7.83,7.83,0,0,0,1.44-.08.75.75,0,0,0,.56-.68c0-.35,0-.69,0-1s0-.4.29-.44.31.31.36.49a7.39,7.39,0,0,1,.09,1.24c0,.24.18.32.42.2a.41.41,0,0,1,.46,0s.06,0,.08,0c.32-.21.68,0,1-.09a.75.75,0,0,1,.26,0h2.72a1.52,1.52,0,0,1,.21,0c.09,0,.15.07.15.16a.16.16,0,0,1-.13.15c-.33.1-.65.32-1,.06a.45.45,0,0,0-.42,0,1.81,1.81,0,0,1-1,.14c-.44,0-.89,0-1.34,0a5.05,5.05,0,0,0-1.28.22c-.18,0-.19.18-.19.33,0,.42,0,.83,0,1.25,0,.25-.07.41-.36.41S46,64.1,46,63.84a3,3,0,0,1,.07-.78.63.63,0,0,0-.63-.82C45.19,62.23,44.92,62.24,44.56,62.24Z" transform="translate(-0.38 0.13)"/><path class="cls-7" d="M50.47,64a3.61,3.61,0,0,1-.84.06,5,5,0,0,0-1.71.15c-.38.15-.65-.11-.67-.52,0-.17,0-.34,0-.52s.1-.26.33-.21c.7.19,1.36.5,2.08.63A1.8,1.8,0,0,1,50.47,64Z" transform="translate(-0.38 0.13)"/><path class="cls-8" d="M50.22,59.53a12,12,0,0,1-1.16.54c-.5.24-1,.44-1.51.7-.16.08-.27,0-.28-.17a5.21,5.21,0,0,1,0-.79.32.32,0,0,1,.31-.29A23.25,23.25,0,0,1,50.22,59.53Z" transform="translate(-0.38 0.13)"/><path class="cls-7" d="M44,64.24c-.38,0-.76,0-1.15,0-.08,0-.21,0-.22-.09s.08-.14.16-.16c.76-.2,1.46-.58,2.2-.85.35-.12.5,0,.51.35,0,.75,0,.76-.74.76H44Z" transform="translate(-0.38 0.13)"/><path class="cls-9" d="M42.81,59.91c.12-.14.25-.11.37-.11H44.3a1.09,1.09,0,0,0,.56-.12.42.42,0,0,1,.51,0,.43.43,0,0,1,.12.53.58.58,0,0,0-.05.14c0,.41-.26.53-.62.34a10.12,10.12,0,0,0-1.53-.6A4.15,4.15,0,0,1,42.81,59.91Z" transform="translate(-0.38 0.13)"/><path class="cls-4" d="M48.36,61.2l-.16,0c-.05,0-.11,0-.12-.07s.05-.09.09-.11c.31-.17.62-.34.95-.49.7-.33,1.41-.64,2.11-1a.6.6,0,0,1,.11-.06c.17-.06.43-.15.49,0s-.19.23-.35.29a2,2,0,0,0-.69.37,3,3,0,0,1-.69.36c-.4.22-.9.22-1.25.54A.69.69,0,0,1,48.36,61.2Z" transform="translate(-0.38 0.13)"/><path class="cls-6" d="M49.76,61.07c.46-.2.9-.41,1.36-.57.22-.08.43-.17.64-.27s.34,0,.36.21a.13.13,0,0,0,0,.06c0,.64,0,.7-.65.7H50.12C50,61.19,49.87,61.23,49.76,61.07Z" transform="translate(-0.38 0.13)"/><path class="cls-5" d="M48.21,62.62a1.48,1.48,0,0,1,1.15,0A10.82,10.82,0,0,0,51,63.2a6.33,6.33,0,0,0,1,.42c.06,0,.09.08.09.15a.16.16,0,0,1-.13.14.32.32,0,0,1-.27,0,15.37,15.37,0,0,0-1.92-.72C49.27,62.93,48.71,62.88,48.21,62.62Z" transform="translate(-0.38 0.13)"/><path class="cls-5" d="M41.25,60a1.9,1.9,0,0,1,1,.06c.77.32,1.51.71,2.31,1,.12,0,.34.11.32.23s-.24.09-.38.09a.48.48,0,0,1-.26,0c-.46-.2-.9-.42-1.36-.61s-1-.38-1.47-.56A.19.19,0,0,1,41.25,60Z" transform="translate(-0.38 0.13)"/><path class="cls-5" d="M44.59,62.83a2.46,2.46,0,0,1-.73.35c-.51.16-1,.39-1.48.59a1.51,1.51,0,0,1-.58.18.73.73,0,0,0-.41.18c-.1.07-.22.15-.31,0s0-.22.15-.26c.82-.26,1.54-.76,2.38-1a1.81,1.81,0,0,1,.76-.15C44.44,62.73,44.54,62.71,44.59,62.83Z" transform="translate(-0.38 0.13)"/><path class="cls-10" d="M42.07,61.5c-.24,0-.48,0-.72,0S41,61.36,41,61s.12-.35.36-.33a.36.36,0,0,1,.15,0c.44.18.87.37,1.3.57.07,0,.16.08.14.17s-.13.08-.21.08Z" transform="translate(-0.38 0.13)"/><path class="cls-6" d="M51.12,62.36h.67c.27,0,.34.16.34.4s-.15.32-.38.33a1.64,1.64,0,0,1-.6-.2,4,4,0,0,1-.88-.32c-.05,0-.13,0-.11-.12s.1-.09.17-.09Z" transform="translate(-0.38 0.13)"/><path class="cls-4" d="M42.24,62.54h.09c.17,0,.43-.08.48.09s-.22.25-.36.34a.74.74,0,0,1-.38.12,1.56,1.56,0,0,0-.67.18c-.13,0-.28.17-.34-.05s-.08-.43.15-.46S41.91,62.44,42.24,62.54Z" transform="translate(-0.38 0.13)"/><path class="cls-3" d="M50.42,36.6v6.12c0,.15,0,.29,0,.43a.33.33,0,0,1-.37.36H48.31a.33.33,0,0,1-.37-.35c0-.13,0-.27,0-.4V30.42c0-.75,0-.76.74-.76h1.25c.42,0,.49.08.51.51V36.6Z" transform="translate(-0.38 0.13)"/><path class="cls-11" d="M46.32,60.08a2.25,2.25,0,0,1,.26,1.22c0,.48,0,.48.47.59a.25.25,0,0,1,.09,0c0,.07,0,.09-.07.1-.49.11-.49.11-.49.6s0,.77,0,1.16c0,.13,0,.29-.2.28s-.15-.16-.15-.28a.71.71,0,0,1,0-.36A1.22,1.22,0,0,0,46,62.07a.18.18,0,0,1,0-.27.7.7,0,0,0,.2-.61V60.08Z" transform="translate(-0.38 0.13)"/></svg>